<?xml version="1.0" encoding="utf-8"?>
<!-- Generator: Adobe Illustrator 24.2.0, SVG Export Plug-In . SVG Version: 6.00 Build 0)  -->
<svg version="1.1" id="Layer_1" xmlns="http://www.w3.org/2000/svg" xmlns:xlink="http://www.w3.org/1999/xlink" x="0px" y="0px"
	 viewBox="0 0 467.9 241.1" style="enable-background:new 0 0 467.9 241.1;" xml:space="preserve">
<style type="text/css">
	.st0{clip-path:url(#SVGID_2_);}
	.st1{fill:#F2350B;}
	.st2{fill:#FF911E;}
	.st3{fill:#FFE536;}
	.st4{fill:#39A126;}
	.st5{fill:#019BE1;}
	.st6{fill:#8C2769;}
	.st7{clip-path:url(#SVGID_4_);}
	.st8{clip-path:url(#SVGID_6_);}
	.st9{clip-path:url(#SVGID_8_);}
	.st10{clip-path:url(#SVGID_10_);}
	.st11{clip-path:url(#SVGID_12_);}
</style>
<g>
	<g>
		<defs>
			<path id="SVGID_1_" d="M155.77,96.47c-1.74-1.12-3.64-1.95-5.42-2.05c-1.87-0.11-3.74,0.43-5.23,1.52
				c-2.99,2.17-5.14,7.14-4.84,10.66c0.34,4,3.16,7.66,6.94,9.38c3.99,1.81,9.67,1.74,13.07-1.12c2.53-2.13,3.51-5.72,3-8.87
				C162.63,101.83,159.27,98.71,155.77,96.47z"/>
		</defs>
		<clipPath id="SVGID_2_">
			<use xlink:href="#SVGID_1_"  style="overflow:visible;"/>
		</clipPath>
		<g class="st0">
			<rect x="71.64" y="71.53" class="st1" width="458.26" height="16.72"/>
			<rect x="71.59" y="87.79" class="st2" width="458.26" height="16.72"/>
			<rect x="71.53" y="104.04" class="st3" width="458.26" height="16.72"/>
			<rect x="71.48" y="120.3" class="st4" width="458.26" height="16.72"/>
			<rect x="71.42" y="136.55" class="st5" width="458.26" height="16.72"/>
			<rect x="71.37" y="152.81" class="st6" width="458.26" height="16.72"/>
		</g>
	</g>
	<g>
		<defs>
			<path id="SVGID_3_" d="M143.01,73.29v6.89c0,0.86-0.64,1.58-1.49,1.68l-5.38,0.65c-0.85,0.1-1.49,0.83-1.49,1.68
				c0,0,0,49.63,0,49.65c0,9.97-2.35,20.58-10.3,27.27c-9.03,7.6-22.67,8.89-33.98,7.27c-9.28-1.33-18.86-6.2-18.86-16.81
				c0-7.93,4.18-13.55,12.54-13.55c5.4,0,9.89,2.65,12.25,7.53c1.65,3.4,1.76,7.25,3.33,10.62c0.91,1.94,3.25,2.72,4.4,0.46
				c0.81-1.57,0.56-3.78,0.49-5.49c-0.53-13.77-0.29-27.59-0.29-41.37c0-7.06,0-14.13,0-21.19c0-1.48,0-2.96,0-4.44
				c0-0.84-0.61-1.55-1.44-1.68l-3.75-0.57c-0.83-0.13-1.44-0.84-1.44-1.68v-6.94c0-0.94,0.76-1.7,1.7-1.7h42.02
				C142.25,71.59,143.01,72.35,143.01,73.29z"/>
		</defs>
		<clipPath id="SVGID_4_">
			<use xlink:href="#SVGID_3_"  style="overflow:visible;"/>
		</clipPath>
		<g class="st7">
			<rect x="71.64" y="71.53" class="st1" width="458.26" height="16.72"/>
			<rect x="71.59" y="87.79" class="st2" width="458.26" height="16.72"/>
			<rect x="71.53" y="104.04" class="st3" width="458.26" height="16.72"/>
			<rect x="71.48" y="120.3" class="st4" width="458.26" height="16.72"/>
			<rect x="71.42" y="136.55" class="st5" width="458.26" height="16.72"/>
			<rect x="71.37" y="152.81" class="st6" width="458.26" height="16.72"/>
		</g>
	</g>
	<g>
		<defs>
			<path id="SVGID_5_" d="M269.93,110.38c0.03,5.81-5.26,8.66-10.86,8.69c-3.13,0.01-5.82-1.51-7.82-3.68
				c-2.16-2.34-2.75-5.61-4.87-7.92c-2.67-2.9-6.92,0.81-8.46,3.04c-1.6,2.32-1.66,5.12,0.79,6.93c2.01,1.48,4.68,2.17,7.09,2.82
				c6.55,1.78,13.52,3.1,19.1,7c5.72,3.98,8.18,10.13,8.21,16.67c0.09,20.4-18.19,25.58-33.32,25.65
				c-9.23,0.04-27.09-1.01-27.15-14.18c-0.03-5.95,4.79-10.93,11.15-10.96c4.14-0.02,7.73,1.64,10.01,4.9
				c1,1.43,1.83,2.96,2.31,4.62c0.82,2.87,1.41,5.67,5.02,6.35c1.53,0.29,3.13,0.08,4.62-0.33c2.49-0.68,4.9-2.01,6.17-4.13
				c4.61-7.75-9.05-10.32-14.1-11.8c-7.24-2.13-14.98-4.98-18.88-11.52c-1.92-3.22-2.65-6.92-2.67-10.57
				c-0.09-20.11,18.2-24.73,33.33-24.8C261.25,97.11,269.89,100.89,269.93,110.38z"/>
		</defs>
		<clipPath id="SVGID_6_">
			<use xlink:href="#SVGID_5_"  style="overflow:visible;"/>
		</clipPath>
		<g class="st8">
			<rect x="71.64" y="71.53" class="st1" width="458.26" height="16.72"/>
			<rect x="71.59" y="87.79" class="st2" width="458.26" height="16.72"/>
			<rect x="71.53" y="104.04" class="st3" width="458.26" height="16.72"/>
			<rect x="71.48" y="120.3" class="st4" width="458.26" height="16.72"/>
			<rect x="71.42" y="136.55" class="st5" width="458.26" height="16.72"/>
			<rect x="71.37" y="152.81" class="st6" width="458.26" height="16.72"/>
		</g>
	</g>
	<g>
		<defs>
			<path id="SVGID_7_" d="M360.79,97.34c-20.59,0-35.6,14.13-35.6,36.03c0,4.31,0.58,8.32,1.66,11.98
				c-0.54,0.58-1.08,1.15-1.63,1.72c-2.44,2.53-5.17,4.88-8.43,6.3c-1.61,0.7-3.54,1.17-5.26,0.7c-4.16-1.29-4.16-7.36-4.16-11.72
				v-28.83c0-1.43,1.16-2.58,2.58-2.58h11.15c1.88,0,3.41-1.53,3.41-3.41v-7.87c0-1.43-1.16-2.58-2.58-2.58h-11.98
				c-1.43,0-2.58-1.16-2.58-2.58V74.27c0-1.62-1.47-2.82-3.03-2.54c-0.17,0.03-0.33,0.06-0.5,0.06l-19.14,0.11
				c-2.5,0-3.45,0.97-3.56,2.27c-0.01,0.07-0.01,1.8-0.01,1.88V94.5c0,1.43-1.16,2.58-2.58,2.58h-3.06c-1.43,0-2.58,1.16-2.58,2.58
				v8.7c0,1.43,1.16,2.58,2.58,2.58h3.06c1.43,0,2.58,1.16,2.58,2.58v29.69c0,15.57,3.03,25.52,20.76,25.52
				c1.51,0,3.03-0.11,4.55-0.31c0,0,0,0,0,0c5.95-0.94,11.9-2.81,16.74-6.5c3.03-2.31,5.43-5.25,7.14-8.56
				c6.08,10.22,17.09,16.18,30.46,16.18c20.58,0,35.6-14.13,35.6-36.03C396.39,111.47,381.38,97.34,360.79,97.34z M366.7,151.91
				c-0.06,0.02-0.11,0.04-0.17,0.06c-6.2,1.96-12.06-1.16-15.48-5.98c-4.13-5.82-7.37-14.6-5.54-21.77c1.08-4.2,4.08-7.71,8.42-9.14
				c11.32-3.73,17.58,7.76,20.38,16.02C377.69,141.11,374.32,149.4,366.7,151.91z"/>
		</defs>
		<clipPath id="SVGID_8_">
			<use xlink:href="#SVGID_7_"  style="overflow:visible;"/>
		</clipPath>
		<g class="st9">
			<rect x="71.64" y="71.53" class="st1" width="458.26" height="16.72"/>
			<rect x="71.59" y="87.79" class="st2" width="458.26" height="16.72"/>
			<rect x="71.53" y="104.04" class="st3" width="458.26" height="16.72"/>
			<rect x="71.48" y="120.3" class="st4" width="458.26" height="16.72"/>
			<rect x="71.42" y="136.55" class="st5" width="458.26" height="16.72"/>
			<rect x="71.37" y="152.81" class="st6" width="458.26" height="16.72"/>
		</g>
	</g>
	<g>
		<defs>
			<path id="SVGID_9_" d="M210.74,116.43c-0.23-1.53-0.49-1.66-0.77-3.18c-0.25-1.4-0.54-2.82-0.98-4.18l0,0l-1.81-6.14
				c-0.42-1.44-1.98-2.23-3.42-1.75l-7.69,2.58c-2.13,0.67-4.16,1.62-5.79,2.43c-0.91,0.46-1.87,1.01-2.29,1.93
				c-0.39,0.84-0.27,1.81-0.12,2.72c0.74,4.57,1.84,7.7,2.15,12.32c0.33,4.97-0.06,10.65-3.61,14.5c-3.16,3.41-7.96,5.31-12.64,5.07
				c-6.77-0.35-12.7-5.22-15.82-11c-2.44-4.52-2.04-7.84-5.95-8.05c-3.08-0.17-6.1,1.73-8.76,2.85c-0.73,0.3-2.04,1.1-2.5,1.73
				c-1.48,2.06,0.14,5.66,0.82,8.3c0.26,1.01,0.54,2.02,0.88,3.02c3.54,10.25,10.77,21.18,21.15,26.5
				c7.48,3.84,16.75,4.49,24.73,1.88c13.84-4.51,21.81-17.73,23.27-31.47C212.3,129.8,211.76,123.08,210.74,116.43z"/>
		</defs>
		<clipPath id="SVGID_10_">
			<use xlink:href="#SVGID_9_"  style="overflow:visible;"/>
		</clipPath>
		<g class="st10">
			<rect x="71.64" y="71.53" class="st1" width="458.26" height="16.72"/>
			<rect x="71.59" y="87.79" class="st2" width="458.26" height="16.72"/>
			<rect x="71.53" y="104.04" class="st3" width="458.26" height="16.72"/>
			<rect x="71.48" y="120.3" class="st4" width="458.26" height="16.72"/>
			<rect x="71.42" y="136.55" class="st5" width="458.26" height="16.72"/>
			<rect x="71.37" y="152.81" class="st6" width="458.26" height="16.72"/>
		</g>
	</g>
	<g>
		<defs>
			<path id="SVGID_11_" d="M186.83,86.74c0.81,0.55,2.02,0.21,2.92,0.19c3-0.06,6.58,1.37,7.27,4.61c0.99,4.68-4.53,6.96-7.75,8.8
				c-3.06,1.74-6.14,3.45-9.25,5.12c-2.08,1.12-5.74,4.21-7.75,1.65c-0.44-0.69-0.62-1.52-0.77-2.33
				c-0.58-3.36-0.62-6.82-0.71-10.22c-0.12-4.85,0.38-10.42,4.47-13.65c1.77-1.4,4.27-2,6.45-1.29c2.74,0.89,3.62,3.34,4.37,5.86
				C186.23,85.95,186.42,86.46,186.83,86.74z"/>
		</defs>
		<clipPath id="SVGID_12_">
			<use xlink:href="#SVGID_11_"  style="overflow:visible;"/>
		</clipPath>
		<g class="st11">
			<rect x="71.64" y="71.53" class="st1" width="458.26" height="16.72"/>
			<rect x="71.59" y="87.79" class="st2" width="458.26" height="16.72"/>
			<rect x="71.53" y="104.04" class="st3" width="458.26" height="16.72"/>
			<rect x="71.48" y="120.3" class="st4" width="458.26" height="16.72"/>
			<rect x="71.42" y="136.55" class="st5" width="458.26" height="16.72"/>
			<rect x="71.37" y="152.81" class="st6" width="458.26" height="16.72"/>
		</g>
	</g>
</g>
</svg>
